<?xml version="1.0" encoding="UTF-8" standalone="no"?>
<!-- Created with Inkscape (http://www.inkscape.org/) -->

<svg
   xmlns:dc="http://purl.org/dc/elements/1.1/"
   xmlns:cc="http://creativecommons.org/ns#"
   xmlns:rdf="http://www.w3.org/1999/02/22-rdf-syntax-ns#"
   xmlns:svg="http://www.w3.org/2000/svg"
   xmlns="http://www.w3.org/2000/svg"
   xmlns:sodipodi="http://sodipodi.sourceforge.net/DTD/sodipodi-0.dtd"
   xmlns:inkscape="http://www.inkscape.org/namespaces/inkscape"
   width="188.83145mm"
   height="44.529167mm"
   viewBox="0 0 188.83145 44.529167"
   version="1.1"
   id="svg3833"
   inkscape:version="0.91 r13725"
   sodipodi:docname="portability_image.svg">
  <defs
     id="defs3827" />
  <sodipodi:namedview
     id="base"
     pagecolor="#ffffff"
     bordercolor="#666666"
     borderopacity="1.0"
     inkscape:pageopacity="0.0"
     inkscape:pageshadow="2"
     inkscape:zoom="0.98994949"
     inkscape:cx="206.11528"
     inkscape:cy="-13.25991"
     inkscape:document-units="mm"
     inkscape:current-layer="layer1"
     showgrid="false"
     inkscape:window-width="1600"
     inkscape:window-height="846"
     inkscape:window-x="0"
     inkscape:window-y="0"
     inkscape:window-maximized="1"
     fit-margin-top="0"
     fit-margin-left="0"
     fit-margin-right="0"
     fit-margin-bottom="0" />
  <metadata
     id="metadata3830">
    <rdf:RDF>
      <cc:Work
         rdf:about="">
        <dc:format>image/svg+xml</dc:format>
        <dc:type
           rdf:resource="http://purl.org/dc/dcmitype/StillImage" />
        <dc:title></dc:title>
      </cc:Work>
    </rdf:RDF>
  </metadata>
  <g
     inkscape:label="Layer 1"
     inkscape:groupmode="layer"
     id="layer1"
     transform="translate(-11.170333,-12)">
    <path
       id="path4378"
       d="m 187.0983,17.229641 -16.90367,0 0,4.57594 16.90367,0 z m -15.49503,3.268528 0.60782,-1.961116 0.89802,0 -0.60784,1.961116 z m 1.45513,0 0.60781,-1.961116 0.898,0 -0.60782,1.961116 z m 1.45582,0 0.60781,-1.961116 0.89802,0 -0.60853,1.961116 z m 1.45512,0 0.60782,-1.961116 0.89731,0 -0.60782,1.961116 z m 2.35313,0 -0.89731,0 0.60785,-1.961116 0.89799,0 z m 6.66287,-0.326853 c -0.38878,0 -0.70432,-0.292859 -0.70432,-0.653705 0,-0.360845 0.31554,-0.653704 0.70432,-0.653704 0.38947,0 0.70431,0.292859 0.70431,0.653704 0,0.360846 -0.31484,0.653705 -0.70431,0.653705 z m 2.11296,2.941674 -16.90367,0 0,4.57594 16.90367,0 z m -15.49503,3.268528 0.60782,-1.961116 0.89802,0 -0.60784,1.961116 z m 1.45513,0 0.60781,-1.961116 0.898,0 -0.60782,1.961116 z m 1.45582,0 0.60781,-1.961116 0.89802,0 -0.60853,1.961116 z m 1.45512,0 0.60782,-1.961116 0.89731,0 -0.60782,1.961116 z m 2.35313,0 -0.89731,0 0.60785,-1.961116 0.89799,0 z m 6.66287,-0.326854 c -0.38878,0 -0.70432,-0.292859 -0.70432,-0.653704 0,-0.360845 0.31554,-0.653704 0.70432,-0.653704 0.38947,0 0.70431,0.292859 0.70431,0.653704 0,0.360845 -0.31484,0.653704 -0.70431,0.653704 z m 0.70431,-10.132431 -14.08638,0 L 174.42055,12 l 8.45183,0 z"
       inkscape:connector-curvature="0"
       style="stroke-width:0.67854071" />
    <path
       id="path4389"
       d="m 178.665,36.540714 -16.90367,0 0,2.614821 16.90367,0 z m -15.49502,1.961117 0.60781,-1.307412 0.89803,0 -0.60785,1.307412 z m 1.45513,0 0.60853,-1.307412 0.898,0 -0.60782,1.307412 z m 1.45582,0 0.60783,-1.307412 0.898,0 -0.60853,1.307412 z m 1.45512,0 0.60784,-1.307412 0.89731,0 -0.60784,1.307412 z m 2.35313,0 -0.89732,0 0.60785,-1.307412 0.898,0 z m 6.66286,0 c -0.38878,0 -0.70431,-0.292863 -0.70431,-0.653708 0,-0.360845 0.31553,-0.653704 0.70431,-0.653704 0.38951,0 0.70435,0.292859 0.70435,0.653704 0,0.360845 -0.31484,0.653708 -0.70435,0.653708 z m 2.11296,1.961116 -16.90367,0 0,2.61482 16.90367,0 z m -15.49502,1.961116 0.60781,-1.307412 0.89803,0 -0.60785,1.307412 z m 1.45513,0 0.60781,-1.307412 0.89802,0 -0.60783,1.307412 z m 1.45582,0 0.60783,-1.307412 0.898,0 -0.60853,1.307412 z m 1.45512,0 0.60784,-1.307412 0.89731,0 -0.60784,1.307412 z m 2.35313,0 -0.89732,0 0.60785,-1.307412 0.898,0 z m 6.66286,0 c -0.38878,0 -0.70431,-0.292862 -0.70431,-0.653707 0,-0.360846 0.31553,-0.653705 0.70431,-0.653705 0.38951,0 0.70435,0.292859 0.70435,0.653705 0,0.360845 -0.31484,0.653707 -0.70435,0.653707 z m 2.11296,1.961116 -16.90367,0 0,2.614821 16.90367,0 z m -15.49502,1.961117 0.60781,-1.307412 0.89803,0 -0.60785,1.307412 z m 1.45513,0 0.60781,-1.307412 0.89802,0 -0.60783,1.307412 z m 1.45582,0 0.60783,-1.307412 0.898,0 -0.60853,1.307412 z m 1.45512,0 0.60784,-1.307412 0.89731,0 -0.60784,1.307412 z m 2.35313,0 -0.89732,0 0.60785,-1.307412 0.898,0 z m 6.66286,0 c -0.38878,0 -0.70431,-0.292862 -0.70431,-0.653708 0,-0.360845 0.31553,-0.653704 0.70431,-0.653704 0.38951,0 0.70435,0.292859 0.70435,0.653704 0,0.360846 -0.31484,0.653708 -0.70435,0.653708 z m 0.70435,-11.112994 -14.08641,0 2.81727,-3.922232 8.45183,0 z"
       inkscape:connector-curvature="0"
       style="stroke-width:0.67854071" />
    <path
       id="path4400"
       d="m 61.909159,38.82238 -22.785769,0 0,8.17762 22.785769,0 z m -20.714361,5.841157 0.89384,-3.504693 1.320526,0 -0.89381,3.504693 z m 2.139796,0 0.893841,-3.504693 1.320526,0 -0.89381,3.504693 z m 2.140845,0 0.89381,-3.504693 1.320557,0 -0.894858,3.504693 z m 2.139797,0 0.89381,-3.504693 1.319508,0 -0.893839,3.504693 z m 3.460322,0 -1.319508,0 0.893809,-3.504693 1.320557,0 z m 7.726444,-0.584118 c -0.571711,0 -1.035706,-0.523365 -1.035706,-1.168229 0,-0.644864 0.463995,-1.168228 1.035706,-1.168228 0.572742,0 1.035704,0.523364 1.035704,1.168228 0,0.644864 -0.462962,1.168229 -1.035704,1.168229 z m 1.035704,-22.780501 0,12.85054 -18.642908,0 0,-12.85054 z m 2.071453,-2.336458 -22.785769,0 0,17.523463 22.785769,0 z m -13.464308,8.761731 -2.654558,-2.920581 -0.79852,0.877342 1.858058,2.043239 -1.858058,2.043234 0.79852,0.877342 z m 7.250006,1.752347 -5.178598,0 0,1.168229 5.178598,0 z"
       inkscape:connector-curvature="0"
       style="stroke-width:1.09998035" />
    <path
       id="path4411"
       d="m 123.10735,33.74754 0,-7.072794 -17.54771,0 0,7.072794 z m -2.92462,-4.715195 c 0.53912,0 0.97491,0.528099 0.97491,1.178793 0,0.650704 -0.43579,1.178807 -0.97491,1.178807 -0.53813,0 -0.97486,-0.528103 -0.97486,-1.178807 0,-0.650694 0.43673,-1.178793 0.97486,-1.178793 z m -7.60982,0 1.24294,0 -0.84229,2.3576 -1.242,0 z m -2.08723,0 1.24299,0 -0.84134,2.3576 -1.24295,0 z m -2.13496,0 1.24296,0 -0.84134,2.3576 -1.24294,0 z m -4.74081,1.10925 c -2.19643,-0.34186 -3.899547,-2.586285 -3.899547,-5.332884 0,-2.654655 1.585187,-4.857829 3.672397,-5.311664 0.17243,-3.882962 2.82227,-6.96788 6.0764,-6.96788 3.25413,0 5.9038,3.084918 6.07634,6.96788 1.95463,0.425571 3.45204,2.39178 3.63535,4.820105 l -1.941,0 c -0.27192,-2.48137 -2.60683,-2.750135 -3.55829,-2.830295 0.11418,-2.308087 -0.54104,-6.600091 -4.2124,-6.600091 -4.32649,0 -4.24949,5.599292 -4.21244,6.600091 -0.92127,-0.04367 -3.58658,0.401956 -3.58658,3.321854 0,1.441667 0.83448,2.646403 1.94977,2.959962 z"
       inkscape:connector-curvature="0"
       style="stroke-width:1.0719974" />
    <path
       id="path4422"
       d="m 34.300398,18.261526 -18.988157,0 0,18.224397 18.988157,0 z m -1.898829,15.420647 -15.190499,0 0,-12.616891 15.190499,0 z m 1.898829,4.20563 -18.988157,0 -1.898784,8.411262 22.78577,0 z m -11.609335,7.009382 0.442409,-1.401875 3.34571,0 0.442439,1.401875 z"
       inkscape:connector-curvature="0"
       style="stroke-width:1.15366888" />
    <path
       id="path4389-7"
       d="m 196.76133,36.540714 -16.90367,0 0,2.614821 16.90367,0 z m -15.49502,1.961117 0.60781,-1.307412 0.89802,0 -0.60784,1.307412 z m 1.45512,0 0.60854,-1.307412 0.898,0 -0.60783,1.307412 z m 1.45583,0 0.60783,-1.307412 0.898,0 -0.60853,1.307412 z m 1.45512,0 0.60783,-1.307412 0.89732,0 -0.60785,1.307412 z m 2.35313,0 -0.89732,0 0.60785,-1.307412 0.898,0 z m 6.66286,0 c -0.38878,0 -0.70431,-0.292863 -0.70431,-0.653708 0,-0.360845 0.31553,-0.653704 0.70431,-0.653704 0.38951,0 0.70434,0.292859 0.70434,0.653704 0,0.360845 -0.31483,0.653708 -0.70434,0.653708 z m 2.11296,1.961116 -16.90367,0 0,2.61482 16.90367,0 z m -15.49502,1.961116 0.60781,-1.307412 0.89802,0 -0.60784,1.307412 z m 1.45512,0 0.60781,-1.307412 0.89803,0 -0.60784,1.307412 z m 1.45583,0 0.60783,-1.307412 0.898,0 -0.60853,1.307412 z m 1.45512,0 0.60783,-1.307412 0.89732,0 -0.60785,1.307412 z m 2.35313,0 -0.89732,0 0.60785,-1.307412 0.898,0 z m 6.66286,0 c -0.38878,0 -0.70431,-0.292862 -0.70431,-0.653707 0,-0.360846 0.31553,-0.653705 0.70431,-0.653705 0.38951,0 0.70434,0.292859 0.70434,0.653705 0,0.360845 -0.31483,0.653707 -0.70434,0.653707 z m 2.11296,1.961116 -16.90367,0 0,2.614821 16.90367,0 z m -15.49502,1.961117 0.60781,-1.307412 0.89802,0 -0.60784,1.307412 z m 1.45512,0 0.60781,-1.307412 0.89803,0 -0.60784,1.307412 z m 1.45583,0 0.60783,-1.307412 0.898,0 -0.60853,1.307412 z m 1.45512,0 0.60783,-1.307412 0.89732,0 -0.60785,1.307412 z m 2.35313,0 -0.89732,0 0.60785,-1.307412 0.898,0 z m 6.66286,0 c -0.38878,0 -0.70431,-0.292862 -0.70431,-0.653708 0,-0.360845 0.31553,-0.653704 0.70431,-0.653704 0.38951,0 0.70434,0.292859 0.70434,0.653704 0,0.360846 -0.31483,0.653708 -0.70434,0.653708 z m 0.70434,-11.112994 -14.0864,0 2.81727,-3.922232 8.45183,0 z"
       inkscape:connector-curvature="0"
       style="stroke-width:0.67854071" />
    <path
       id="path4448"
       d="m 102.25374,33.340497 c 2.52472,0 4.30728,2.472821 4.07038,5.994168 1.27587,-0.04074 3.2412,0.663987 3.2412,3.288848 0,1.706328 -1.14791,3.094369 -2.55904,3.094369 l -9.505058,0 c -1.411127,0 -2.559039,-1.388041 -2.559039,-3.094369 0,-2.47279 1.812532,-3.388723 3.241209,-3.288848 -0.122088,-3.729118 1.614391,-5.994168 4.070348,-5.994168 z m 0,-1.768211 c -2.929018,0 -5.313313,2.776965 -5.468319,6.270048 -1.879066,0.409325 -3.305549,2.392361 -3.305549,4.781179 0,2.685014 1.800836,4.862549 4.02135,4.862549 l 9.505058,0 c 2.22053,0 4.02135,-2.177535 4.02135,-4.862549 0,-2.388818 -1.42647,-4.371854 -3.30554,-4.781179 -0.15501,-3.493083 -2.53931,-6.270048 -5.46835,-6.270048 z"
       inkscape:connector-curvature="0"
       style="stroke-width:0.80399805" />
    <path
       id="path4448-6"
       d="m 119.70604,33.383602 c 2.52468,0 4.30723,2.472821 4.07034,5.994168 1.27586,-0.04074 3.24121,0.663987 3.24121,3.288848 0,1.706328 -1.14791,3.094369 -2.55904,3.094369 l -9.50502,0 c -1.41112,0 -2.55904,-1.388041 -2.55904,-3.094369 0,-2.47279 1.81254,-3.388723 3.24122,-3.288848 -0.1221,-3.729118 1.61439,-5.994168 4.07033,-5.994168 z m 0,-1.768211 c -2.929,0 -5.3133,2.776965 -5.4683,6.270048 -1.87908,0.409325 -3.30555,2.392362 -3.30555,4.781179 0,2.685014 1.80084,4.862549 4.02134,4.862549 l 9.50502,0 c 2.22051,0 4.02135,-2.177535 4.02135,-4.862549 0,-2.388817 -1.42649,-4.371854 -3.30556,-4.781179 -0.15499,-3.493083 -2.53929,-6.270048 -5.4683,-6.270048 z"
       inkscape:connector-curvature="0"
       style="stroke-width:0.80399805" />
    <text
       xml:space="preserve"
       style="font-style:normal;font-variant:normal;font-weight:normal;font-stretch:normal;font-size:4.23333311px;line-height:1.25;font-family:arial;-inkscape-font-specification:arial;letter-spacing:0px;word-spacing:0px;fill:#000000;fill-opacity:1;stroke:none;stroke-width:0.26458332"
       x="158.42087"
       y="55.944878"
       id="text4476"><tspan
         sodipodi:role="line"
         id="tspan4474"
         x="158.42087"
         y="55.944878"
         style="font-style:normal;font-variant:normal;font-weight:bold;font-stretch:normal;font-size:5.64444447px;font-family:arial;-inkscape-font-specification:'arial Bold';stroke-width:0.26458332">Clusters &amp; HPC</tspan></text>
    <text
       xml:space="preserve"
       style="font-style:normal;font-variant:normal;font-weight:normal;font-stretch:normal;font-size:4.23333311px;line-height:1.25;font-family:arial;-inkscape-font-specification:arial;letter-spacing:0px;word-spacing:0px;fill:#000000;fill-opacity:1;stroke:none;stroke-width:0.26458332"
       x="10.79275"
       y="55.357834"
       id="text4476-5"><tspan
         sodipodi:role="line"
         id="tspan4474-6"
         x="10.79275"
         y="55.357834"
         style="font-style:normal;font-variant:normal;font-weight:bold;font-stretch:normal;font-size:5.64444447px;font-family:arial;-inkscape-font-specification:'arial Bold';stroke-width:0.26458332">Laptops &amp; Desktops</tspan></text>
    <text
       xml:space="preserve"
       style="font-style:normal;font-variant:normal;font-weight:normal;font-stretch:normal;font-size:4.23333311px;line-height:1.25;font-family:arial;-inkscape-font-specification:arial;letter-spacing:0px;word-spacing:0px;fill:#000000;fill-opacity:1;stroke:none;stroke-width:0.26458332"
       x="82.19899"
       y="55.944878"
       id="text4476-5-9"><tspan
         sodipodi:role="line"
         id="tspan4474-6-3"
         x="82.19899"
         y="55.944878"
         style="font-style:normal;font-variant:normal;font-weight:bold;font-stretch:normal;font-size:5.64444447px;font-family:arial;-inkscape-font-specification:'arial Bold';stroke-width:0.26458332">Amazon Web Services</tspan></text>
  </g>
</svg>
